<svg width="12" height="12" viewBox="0 0 12 12" fill="none" xmlns="http://www.w3.org/2000/svg">
<g id="outline/close">
<path id="&#240;&#159;&#142;&#168;-Icon-&#208;&#161;olor" d="M7.41425 6.00025L11.7072 1.70725C12.0982 1.31625 12.0982 0.68425 11.7072 0.29325C11.3162 -0.09775 10.6842 -0.09775 10.2933 0.29325L6.00025 4.58625L1.70725 0.29325C1.31625 -0.09775 0.68425 -0.09775 0.29325 0.29325C-0.09775 0.68425 -0.09775 1.31625 0.29325 1.70725L4.58625 6.00025L0.29325 10.2932C-0.09775 10.6842 -0.09775 11.3163 0.29325 11.7073C0.48825 11.9023 0.74425 12.0002 1.00025 12.0002C1.25625 12.0002 1.51225 11.9023 1.70725 11.7073L6.00025 7.41425L10.2933 11.7073C10.4882 11.9023 10.7442 12.0002 11.0002 12.0002C11.2562 12.0002 11.5122 11.9023 11.7072 11.7073C12.0982 11.3163 12.0982 10.6842 11.7072 10.2932L7.41425 6.00025Z" fill="#0C3058"/>
</g>
</svg>
